<svg width="29" height="23" viewBox="0 0 29 23" fill="none" xmlns="http://www.w3.org/2000/svg">
<path d="M11.9149 5.15805H28L26.2128 15.2645H10.7234L5.95745 0.996582H0" stroke="#417A82" stroke-linejoin="round"/>
<path d="M14.9889 20.6214C14.9889 21.6578 14.1468 22.4996 13.1059 22.4996C12.065 22.4996 11.2229 21.6578 11.2229 20.6214C11.2229 19.585 12.065 18.7432 13.1059 18.7432C14.1468 18.7432 14.9889 19.585 14.9889 20.6214Z" stroke="#417A82"/>
<path d="M25.7132 20.6214C25.7132 21.6578 24.8711 22.4996 23.8302 22.4996C22.7894 22.4996 21.9473 21.6578 21.9473 20.6214C21.9473 19.585 22.7894 18.7432 23.8302 18.7432C24.8711 18.7432 25.7132 19.585 25.7132 20.6214Z" stroke="#417A82"/>
</svg>
