<svg width="25" height="22" viewBox="0 0 25 22" fill="none" xmlns="http://www.w3.org/2000/svg">
<path fill-rule="evenodd" clip-rule="evenodd" d="M22.0002 5.5L23.0603 2H1.95477L3.00018 5.5L2.00018 8.5L3.00018 11.5L2.00018 14.5L3.00018 17.5L1.95477 21.0754H23.0603L22.0002 17.5L23.0002 14.5L22.0002 11.5L23.0002 8.5L22.0002 5.5ZM21.9461 8.5L20.9509 5.5145L21.7125 3H3.29712L4.04877 5.51652L3.05428 8.5L4.05428 11.5L3.05428 14.5L4.04776 17.4805L3.28903 20.0754H21.7208L20.9519 17.4824L21.9461 14.5L20.9461 11.5L21.9461 8.5Z" fill="#417A82"/>
<path fill-rule="evenodd" clip-rule="evenodd" d="M24 1H1V2H24V1ZM0 0V3H25V0H0Z" fill="#417A82"/>
<path fill-rule="evenodd" clip-rule="evenodd" d="M21.5 6L3 6L3 5L21.5 5L21.5 6Z" fill="#417A82"/>
<path fill-rule="evenodd" clip-rule="evenodd" d="M21.5 12L3.5 12L3.5 11L21.5 11L21.5 12Z" fill="#417A82"/>
<path fill-rule="evenodd" clip-rule="evenodd" d="M22.3065 15L2.7085 15L2.7085 14L22.3065 14L22.3065 15Z" fill="#417A82"/>
<path fill-rule="evenodd" clip-rule="evenodd" d="M22.3065 21.0752L2.70856 21.0752L2.70856 20.0752L22.3065 20.0752L22.3065 21.0752Z" fill="#417A82"/>
<path fill-rule="evenodd" clip-rule="evenodd" d="M22.598 9L3 9L3 8L22.598 8V9Z" fill="#417A82"/>
<path fill-rule="evenodd" clip-rule="evenodd" d="M21.5 18L3.5 18L3.5 17L21.5 17V18Z" fill="#417A82"/>
</svg>
