<svg width="25" height="24" viewBox="0 0 25 24" fill="none" xmlns="http://www.w3.org/2000/svg">
<path fill-rule="evenodd" clip-rule="evenodd" d="M24 21.1455H1V22.1455H24V21.1455ZM0 20.1455V23.1455H25V20.1455H0Z" fill="#417A82"/>
<path fill-rule="evenodd" clip-rule="evenodd" d="M22 19.1455H3V20.1455H22V19.1455ZM2 18.1455V21.1455H23V18.1455H2Z" fill="#417A82"/>
<path fill-rule="evenodd" clip-rule="evenodd" d="M13.4523 6.84723H11.5477C11.5457 6.84656 11.5457 6.84651 11.5458 6.84646L11.5464 6.84448L11.547 6.8426C11.5472 6.8419 11.5473 6.84149 11.5474 6.84136L11.545 6.8485C11.5419 6.85744 11.5359 6.87437 11.5269 6.89815C11.5088 6.94589 11.4788 7.02005 11.4358 7.1117C11.3488 7.29751 11.2148 7.54126 11.0284 7.77986C10.6579 8.25413 10.1388 8.64551 9.375 8.64551C8.61124 8.64551 8.09214 8.25413 7.72162 7.77986C7.53521 7.54126 7.40125 7.29751 7.31415 7.1117C7.27119 7.02005 7.24121 6.94589 7.2231 6.89815C7.21407 6.87437 7.2081 6.85744 7.20503 6.8485L7.20261 6.84135C7.20265 6.84146 7.20278 6.84187 7.20302 6.8426L7.20362 6.84448L7.20402 6.84575C7.20403 6.8458 7.20427 6.84656 7.20229 6.84723H5.29771C5.29573 6.84656 5.29575 6.84651 5.29576 6.84646L5.29638 6.84448L5.29698 6.8426C5.29722 6.84187 5.29735 6.84146 5.29739 6.84135L5.29497 6.8485C5.2919 6.85744 5.28593 6.87437 5.2769 6.89815C5.25879 6.94589 5.22881 7.02005 5.18585 7.1117C5.09875 7.29751 4.96479 7.54126 4.77838 7.77986C4.40786 8.25413 3.88876 8.64551 3.125 8.64551C2.30315 8.64551 1.7749 8.27927 1.42636 7.89262C1.27961 7.72983 1.16761 7.56523 1.08704 7.42808L2.693 3.14551H22.307L23.913 7.42808C23.8324 7.56523 23.7204 7.72983 23.5736 7.89262C23.2251 8.27927 22.6968 8.64551 21.875 8.64551C21.1112 8.64551 20.5921 8.25413 20.2216 7.77986C20.0352 7.54126 19.9012 7.29751 19.8141 7.1117C19.7712 7.02005 19.7412 6.94589 19.7231 6.89815C19.7141 6.87437 19.7081 6.85744 19.705 6.8485L19.703 6.8426L19.704 6.84575C19.704 6.8458 19.7043 6.84656 19.7023 6.84723H17.7977C17.7957 6.84656 17.7957 6.84651 17.7958 6.84646L17.797 6.8426L17.795 6.8485C17.7919 6.85744 17.7859 6.87437 17.7769 6.89815C17.7588 6.94589 17.7288 7.02005 17.6859 7.1117C17.5988 7.29751 17.4648 7.54126 17.2784 7.77986C16.9079 8.25413 16.3888 8.64551 15.625 8.64551C14.8612 8.64551 14.3421 8.25413 13.9716 7.77986C13.7852 7.54126 13.6512 7.29751 13.5642 7.1117C13.5212 7.02005 13.4912 6.94589 13.4731 6.89815C13.4641 6.87437 13.4581 6.85744 13.455 6.8485L13.4526 6.84134C13.4526 6.84121 13.4527 6.84162 13.453 6.8426L13.4536 6.84448L13.454 6.84575C13.454 6.8458 13.4543 6.84656 13.4523 6.84723ZM18.1603 8.27047C18.5799 7.68982 18.75 7.14551 18.75 7.14551C18.75 7.14551 18.9201 7.68982 19.3397 8.27047C19.8193 8.93424 20.6249 9.64551 21.875 9.64551C24.2188 9.64551 25 7.47884 25 7.47884L23 2.14551H2L0 7.47884C0 7.47884 0.78125 9.64551 3.125 9.64551C4.37514 9.64551 5.18073 8.93424 5.66034 8.27047C6.0799 7.68982 6.25 7.14551 6.25 7.14551C6.25 7.14551 6.4201 7.68982 6.83966 8.27047C7.31927 8.93424 8.12486 9.64551 9.375 9.64551C10.6251 9.64551 11.4307 8.93424 11.9103 8.27047C12.3299 7.68982 12.5 7.14551 12.5 7.14551C12.5 7.14551 12.6701 7.68982 13.0897 8.27047C13.5693 8.93424 14.3749 9.64551 15.625 9.64551C16.8751 9.64551 17.6807 8.93424 18.1603 8.27047Z" fill="#417A82"/>
<path fill-rule="evenodd" clip-rule="evenodd" d="M2 18.1455L2 9.14551L3 9.14551L3 18.1455L2 18.1455Z" fill="#417A82"/>
<path fill-rule="evenodd" clip-rule="evenodd" d="M22 18.1455L22 9.14551L23 9.14551L23 18.1455L22 18.1455Z" fill="#417A82"/>
<path fill-rule="evenodd" clip-rule="evenodd" d="M22 1.14551H3V2.14551H22V1.14551ZM2 0.145508V3.14551H23V0.145508H2Z" fill="#417A82"/>
<path fill-rule="evenodd" clip-rule="evenodd" d="M24 7.14551L1 7.14551L1 6.14551L24 6.14551L24 7.14551Z" fill="#417A82"/>
</svg>
