<svg width="22" height="22" viewBox="0 0 22 22" fill="none" xmlns="http://www.w3.org/2000/svg">
<path fill-rule="evenodd" clip-rule="evenodd" d="M9.02429 15.9749L8.75576 16.934L9.14663 20.0051H16.8825L17.2734 16.934L17.0049 15.9749H9.02429ZM17.7633 14.9749H8.26583L7.7382 16.8594L8.26583 21.0051H17.7633L18.291 16.8594L17.7633 14.9749Z" fill="#417A82"/>
<path fill-rule="evenodd" clip-rule="evenodd" d="M17.9994 17.9649H7.99944V16.9649H17.9994V17.9649Z" fill="#417A82"/>
<path fill-rule="evenodd" clip-rule="evenodd" d="M9.99944 7.21837V15.9649H15.9994V8.42199L9.99944 7.21837ZM10.9994 8.4389V14.9649H14.9994V9.24131L10.9994 8.4389Z" fill="#417A82"/>
<path fill-rule="evenodd" clip-rule="evenodd" d="M18.193 3.55986L7.41794 1.4053C6.87638 1.297 6.34957 1.64824 6.24128 2.1898L5.61595 5.31709C5.50766 5.85865 5.85889 6.38546 6.40046 6.49375L17.1755 8.64832C18.5806 8.92929 19.9475 8.01797 20.2284 6.61283C20.5094 5.2077 19.5981 3.84083 18.193 3.55986ZM7.61402 0.424707C6.53089 0.208125 5.47727 0.910599 5.26069 1.99373L4.63536 5.12101C4.41878 6.20414 5.12125 7.25776 6.20438 7.47434L16.9794 9.62891C18.9261 10.0182 20.8198 8.75562 21.209 6.80891C21.5983 4.86221 20.3357 2.96854 18.389 2.57927L7.61402 0.424707Z" fill="#417A82"/>
<path fill-rule="evenodd" clip-rule="evenodd" d="M17.6757 9.10167L18.8291 3.33379L19.8097 3.52986L18.6563 9.29775L17.6757 9.10167Z" fill="#417A82"/>
<path fill-rule="evenodd" clip-rule="evenodd" d="M5.99942 7.3778L7.28091 0.969038L8.2615 1.16512L6.98001 7.57387L5.99942 7.3778Z" fill="#417A82"/>
<path fill-rule="evenodd" clip-rule="evenodd" d="M5.19088 2.29291L4.94464 2.24367C4.40308 2.13538 3.87626 2.48662 3.76797 3.02818L3.65524 3.59196C3.54695 4.13352 3.89819 4.66033 4.43975 4.76862L4.686 4.81786L5.19088 2.29291ZM5.14072 1.26308C4.05759 1.0465 3.00397 1.74898 2.78738 2.8321L2.67465 3.39588C2.45807 4.47901 3.16054 5.53263 4.24367 5.74921L5.47051 5.99453L6.36755 1.5084L5.14072 1.26308Z" fill="#417A82"/>
<path fill-rule="evenodd" clip-rule="evenodd" d="M0.577426 2.35016L3.53397 2.94135L3.3379 3.92194L0.381348 3.33075L0.577426 2.35016Z" fill="#417A82"/>
</svg>
