<svg width="23" height="23" viewBox="0 0 23 23" fill="none" xmlns="http://www.w3.org/2000/svg">
<path fill-rule="evenodd" clip-rule="evenodd" d="M19 1H4C2.34315 1 1 2.34315 1 4V19C1 20.6569 2.34315 22 4 22H19C20.6569 22 22 20.6569 22 19V4C22 2.34315 20.6569 1 19 1ZM4 0C1.79086 0 0 1.79086 0 4V19C0 21.2091 1.79086 23 4 23H19C21.2091 23 23 21.2091 23 19V4C23 1.79086 21.2091 0 19 0H4Z" fill="#B84C74"/>
<path fill-rule="evenodd" clip-rule="evenodd" d="M18.1031 14.863H13.0176V13.863H18.1031V14.863Z" fill="#B84C74"/>
<path fill-rule="evenodd" clip-rule="evenodd" d="M18.1031 7.74341H13.0176V6.74341H18.1031V7.74341Z" fill="#B84C74"/>
<path fill-rule="evenodd" clip-rule="evenodd" d="M9.34114 17.8708L4.52733 13.057L5.23444 12.3499L10.0483 17.1637L9.34114 17.8708Z" fill="#B84C74"/>
<path fill-rule="evenodd" clip-rule="evenodd" d="M9.96641 7.74341L4.88086 7.74341L4.88086 6.74341L9.96641 6.74341L9.96641 7.74341Z" fill="#B84C74"/>
<path fill-rule="evenodd" clip-rule="evenodd" d="M7.93213 4.69179V9.77734H6.93213V4.69179H7.93213Z" fill="#B84C74"/>
<path fill-rule="evenodd" clip-rule="evenodd" d="M10.0483 13.057L5.23439 17.8709L4.52728 17.1638L9.34119 12.3499L10.0483 13.057Z" fill="#B84C74"/>
<path fill-rule="evenodd" clip-rule="evenodd" d="M18.1031 16.8972H13.0176V15.8972H18.1031V16.8972Z" fill="#B84C74"/>
</svg>
