<svg width="25" height="26" viewBox="0 0 25 26" fill="none" xmlns="http://www.w3.org/2000/svg">
<path fill-rule="evenodd" clip-rule="evenodd" d="M4.69718 17.1001H2.98123C2.56995 17.1001 2.22559 17.4117 2.18467 17.821L1.7798 21.8697C1.65796 23.0881 2.61474 24.1453 3.83921 24.1453C5.06368 24.1453 6.02046 23.0881 5.89862 21.8697L5.49374 17.821C5.45282 17.4117 5.10846 17.1001 4.69718 17.1001ZM2.98123 16.1001C2.0562 16.1001 1.28168 16.801 1.18963 17.7215L0.784759 21.7702C0.604052 23.5773 2.02312 25.1453 3.83921 25.1453C5.6553 25.1453 7.07436 23.5773 6.89365 21.7702L6.48878 17.7215C6.39674 16.801 5.62221 16.1001 4.69718 16.1001H2.98123Z" fill="#417A82"/>
<path d="M4.96986 19.4925C4.96986 20.1169 4.46365 20.6231 3.83921 20.6231C3.21477 20.6231 2.70856 20.1169 2.70856 19.4925C2.70856 18.868 3.21477 18.3618 3.83921 18.3618C4.46365 18.3618 4.96986 18.868 4.96986 19.4925Z" fill="#417A82"/>
<path fill-rule="evenodd" clip-rule="evenodd" d="M24 1.0752H1V2.0752H24V1.0752ZM0 0.0751953V3.0752H25V0.0751953H0Z" fill="#417A82"/>
<path fill-rule="evenodd" clip-rule="evenodd" d="M22.0151 22.0752L22.0151 3.0752L23.0151 3.0752L23.0151 22.0752L22.0151 22.0752Z" fill="#417A82"/>
<path fill-rule="evenodd" clip-rule="evenodd" d="M17.0302 20.0752L17.0302 5.0752L18.0302 5.0752L18.0302 20.0752L17.0302 20.0752Z" fill="#417A82"/>
<path fill-rule="evenodd" clip-rule="evenodd" d="M14 20.1506L14 5.0752L15 5.0752L15 20.1506L14 20.1506Z" fill="#417A82"/>
<path fill-rule="evenodd" clip-rule="evenodd" d="M11 20.1506L11 5.0752L12 5.0752L12 20.1506L11 20.1506Z" fill="#417A82"/>
<path fill-rule="evenodd" clip-rule="evenodd" d="M8 19.1154L8 5.0752L9 5.0752L9 19.1154L8 19.1154Z" fill="#417A82"/>
<path fill-rule="evenodd" clip-rule="evenodd" d="M5 15.0752L5 5.0752L6 5.0752L6 15.0752L5 15.0752Z" fill="#417A82"/>
<path fill-rule="evenodd" clip-rule="evenodd" d="M2.00012 4.0752H20.9221V22.0752H8.00012V21.0752H19.9221V5.0752H3.00012V14.9973H2.00012V4.0752Z" fill="#417A82"/>
</svg>
