<svg width="25" height="24" viewBox="0 0 25 24" fill="none" xmlns="http://www.w3.org/2000/svg">
<path fill-rule="evenodd" clip-rule="evenodd" d="M23.9999 1.14551H0.999939V2.14551H23.9999V1.14551ZM-6.10352e-05 0.145508V3.14551H24.9999V0.145508H-6.10352e-05Z" fill="#417A82"/>
<path fill-rule="evenodd" clip-rule="evenodd" d="M21.9999 3.14551H2.99994V22.1455H21.9999V3.14551ZM1.99994 23.1455V2.14551H22.9999V23.1455H1.99994Z" fill="#417A82"/>
<path fill-rule="evenodd" clip-rule="evenodd" d="M3 12.9442C3.03631 12.9292 3.07244 12.9133 3.10835 12.8965C3.46446 12.7306 3.79618 12.4836 4.08102 12.1631C4.36606 11.8425 4.59749 11.4556 4.7571 11.0221C4.91674 10.5885 5 10.1204 5 9.64551C5 9.17057 4.91674 8.70251 4.7571 8.26895C4.59749 7.83542 4.36606 7.44856 4.08102 7.12789C3.79618 6.80745 3.46446 6.56041 3.10835 6.39447C3.07244 6.37773 3.03631 6.36184 3 6.34679V12.9442ZM3 14.0026C3.18044 13.9502 3.3578 13.8836 3.53073 13.803C4.01604 13.5768 4.45699 13.2454 4.82843 12.8275C5.19986 12.4096 5.4945 11.9135 5.69552 11.3676C5.89654 10.8216 6 10.2365 6 9.64551C6 9.05456 5.89654 8.4694 5.69552 7.92343C5.4945 7.37747 5.19986 6.88139 4.82843 6.46353C4.45699 6.04566 4.01604 5.7142 3.53073 5.48805C3.3578 5.40746 3.18044 5.34081 3 5.2884C2.67408 5.19373 2.3381 5.14551 2 5.14551V14.1455C2.3381 14.1455 2.67408 14.0973 3 14.0026Z" fill="#417A82"/>
<path fill-rule="evenodd" clip-rule="evenodd" d="M19.7987 22.1455C19.7837 22.1092 19.7678 22.0731 19.751 22.0372C19.5851 21.681 19.3381 21.3493 19.0176 21.0645C18.6969 20.7795 18.3101 20.548 17.8766 20.3884C17.443 20.2288 16.9749 20.1455 16.5 20.1455C16.0251 20.1455 15.557 20.2288 15.1234 20.3884C14.6899 20.548 14.3031 20.7795 13.9824 21.0645C13.6619 21.3493 13.4149 21.681 13.249 22.0372C13.2322 22.0731 13.2163 22.1092 13.2013 22.1455L19.7987 22.1455ZM20.8571 22.1455C20.8047 21.9651 20.738 21.7877 20.6575 21.6148C20.4313 21.1295 20.0998 20.6885 19.682 20.3171C19.2641 19.9456 18.768 19.651 18.2221 19.45C17.6761 19.249 17.0909 19.1455 16.5 19.1455C15.9091 19.1455 15.3239 19.249 14.7779 19.45C14.232 19.651 13.7359 19.9456 13.318 20.3171C12.9002 20.6885 12.5687 21.1295 12.3425 21.6148C12.262 21.7877 12.1953 21.9651 12.1429 22.1455C12.0482 22.4714 12 22.8074 12 23.1455L21 23.1455C21 22.8074 20.9518 22.4714 20.8571 22.1455Z" fill="#417A82"/>
<path fill-rule="evenodd" clip-rule="evenodd" d="M18.5 8.14551C19.3284 8.14551 20 7.47393 20 6.64551C20 5.81708 19.3284 5.14551 18.5 5.14551C17.6716 5.14551 17 5.81708 17 6.64551C17 7.47393 17.6716 8.14551 18.5 8.14551ZM18.5 9.14551C19.8807 9.14551 21 8.02622 21 6.64551C21 5.2648 19.8807 4.14551 18.5 4.14551C17.1193 4.14551 16 5.2648 16 6.64551C16 8.02622 17.1193 9.14551 18.5 9.14551Z" fill="#417A82"/>
<path fill-rule="evenodd" clip-rule="evenodd" d="M6.5 20.1455C7.32843 20.1455 8 19.4739 8 18.6455C8 17.8171 7.32843 17.1455 6.5 17.1455C5.67157 17.1455 5 17.8171 5 18.6455C5 19.4739 5.67157 20.1455 6.5 20.1455ZM6.5 21.1455C7.88071 21.1455 9 20.0262 9 18.6455C9 17.2648 7.88071 16.1455 6.5 16.1455C5.11929 16.1455 4 17.2648 4 18.6455C4 20.0262 5.11929 21.1455 6.5 21.1455Z" fill="#417A82"/>
<path fill-rule="evenodd" clip-rule="evenodd" d="M14.5 16.1455C15.8807 16.1455 17 15.0262 17 13.6455C17 12.2648 15.8807 11.1455 14.5 11.1455C13.1193 11.1455 12 12.2648 12 13.6455C12 15.0262 13.1193 16.1455 14.5 16.1455ZM14.5 17.1455C16.433 17.1455 18 15.5785 18 13.6455C18 11.7125 16.433 10.1455 14.5 10.1455C12.567 10.1455 11 11.7125 11 13.6455C11 15.5785 12.567 17.1455 14.5 17.1455Z" fill="#417A82"/>
<path fill-rule="evenodd" clip-rule="evenodd" d="M10 22.1455L10 3.14551L11 3.14551L11 22.1455L10 22.1455Z" fill="#417A82"/>
<path fill-rule="evenodd" clip-rule="evenodd" d="M14 22.1455L14 3.14551H15L15 22.1455H14Z" fill="#417A82"/>
<path fill-rule="evenodd" clip-rule="evenodd" d="M18 22.1455L18 3.14551L19 3.14551L19 22.1455L18 22.1455Z" fill="#417A82"/>
<path fill-rule="evenodd" clip-rule="evenodd" d="M6 22.1455L6 3.14551H7L7 22.1455H6Z" fill="#417A82"/>
</svg>
