<svg width="93" height="30" viewBox="0 0 93 30" fill="none" xmlns="http://www.w3.org/2000/svg">
<path d="M17.3663 29H0.80625V0.999998H4.12625V26.04H17.3663V29ZM17.6541 15C17.6541 10.3333 18.6407 6.76 20.6141 4.28C22.5874 1.77333 25.4007 0.52 29.0541 0.52C31.0274 0.52 32.7341 0.866666 34.1741 1.56C35.6141 2.25333 36.8007 3.24 37.7341 4.52C38.6941 5.77333 39.4007 7.29333 39.8541 9.08C40.3074 10.84 40.5341 12.8133 40.5341 15C40.5341 19.6667 39.5341 23.2533 37.5341 25.76C35.5607 28.24 32.7341 29.48 29.0541 29.48C27.1074 29.48 25.4141 29.1333 23.9741 28.44C22.5607 27.7467 21.3741 26.7733 20.4141 25.52C19.4807 24.24 18.7874 22.72 18.3341 20.96C17.8807 19.1733 17.6541 17.1867 17.6541 15ZM21.1741 15C21.1741 16.5467 21.3207 18.0133 21.6141 19.4C21.9341 20.7867 22.4141 22.0133 23.0541 23.08C23.6941 24.12 24.5074 24.96 25.4941 25.6C26.5074 26.2133 27.6941 26.52 29.0541 26.52C31.5341 26.52 33.4807 25.5867 34.8941 23.72C36.3074 21.8267 37.0141 18.92 37.0141 15C37.0141 13.48 36.8541 12.0267 36.5341 10.64C36.2407 9.22667 35.7607 8 35.0941 6.96C34.4541 5.89333 33.6274 5.05333 32.6141 4.44C31.6274 3.8 30.4407 3.48 29.0541 3.48C26.6007 3.48 24.6674 4.42667 23.2541 6.32C21.8674 8.18667 21.1741 11.08 21.1741 15ZM55.5978 15.04H64.9978V27.36C64.5711 27.68 64.0511 27.9733 63.4378 28.24C62.8511 28.5067 62.2111 28.7333 61.5178 28.92C60.8511 29.1067 60.1445 29.24 59.3978 29.32C58.6778 29.4267 57.9711 29.48 57.2778 29.48C55.4911 29.48 53.8511 29.2 52.3578 28.64C50.8645 28.0533 49.5711 27.1733 48.4778 26C47.3845 24.8 46.5311 23.2933 45.9178 21.48C45.3045 19.64 44.9978 17.48 44.9978 15C44.9978 12.4133 45.3711 10.2 46.1178 8.36C46.8645 6.52 47.8378 5.02667 49.0378 3.88C50.2378 2.70667 51.5845 1.85333 53.0778 1.32C54.5711 0.786666 56.0645 0.52 57.5578 0.52C59.1578 0.52 60.4778 0.613332 61.5178 0.799998C62.5578 0.959998 63.4378 1.18666 64.1578 1.48L63.3178 4.4C62.0378 3.78667 60.2111 3.48 57.8378 3.48C56.7178 3.48 55.5978 3.68 54.4778 4.08C53.3845 4.45333 52.3978 5.09333 51.5178 6C50.6378 6.90667 49.9178 8.09333 49.3578 9.56C48.7978 11.0267 48.5178 12.84 48.5178 15C48.5178 16.9733 48.7445 18.68 49.1978 20.12C49.6511 21.56 50.2778 22.76 51.0778 23.72C51.9045 24.6533 52.8911 25.36 54.0378 25.84C55.1845 26.2933 56.4378 26.52 57.7978 26.52C59.5045 26.52 60.9578 26.1867 62.1578 25.52V17.72L55.5978 16.92V15.04ZM69.49 15C69.49 10.3333 70.4767 6.76 72.45 4.28C74.4233 1.77333 77.2367 0.52 80.89 0.52C82.8633 0.52 84.57 0.866666 86.01 1.56C87.45 2.25333 88.6367 3.24 89.57 4.52C90.53 5.77333 91.2367 7.29333 91.69 9.08C92.1433 10.84 92.37 12.8133 92.37 15C92.37 19.6667 91.37 23.2533 89.37 25.76C87.3967 28.24 84.57 29.48 80.89 29.48C78.9433 29.48 77.25 29.1333 75.81 28.44C74.3967 27.7467 73.21 26.7733 72.25 25.52C71.3167 24.24 70.6233 22.72 70.17 20.96C69.7167 19.1733 69.49 17.1867 69.49 15ZM73.01 15C73.01 16.5467 73.1567 18.0133 73.45 19.4C73.77 20.7867 74.25 22.0133 74.89 23.08C75.53 24.12 76.3433 24.96 77.33 25.6C78.3433 26.2133 79.53 26.52 80.89 26.52C83.37 26.52 85.3167 25.5867 86.73 23.72C88.1433 21.8267 88.85 18.92 88.85 15C88.85 13.48 88.69 12.0267 88.37 10.64C88.0767 9.22667 87.5967 8 86.93 6.96C86.29 5.89333 85.4633 5.05333 84.45 4.44C83.4633 3.8 82.2767 3.48 80.89 3.48C78.4367 3.48 76.5033 4.42667 75.09 6.32C73.7033 8.18667 73.01 11.08 73.01 15Z" fill="#417A82"/>
</svg>
